<svg width="12" height="20" viewBox="0 0 12 20" fill="none" xmlns="http://www.w3.org/2000/svg">
<path d="M4.29999 16.8H7.69999V15.95H4.29999V16.8ZM1.74999 19.35C1.28249 19.35 0.882421 19.1837 0.549788 18.851C0.216588 18.5179 0.0499878 18.1175 0.0499878 17.65V2.35C0.0499878 1.8825 0.216588 1.48215 0.549788 1.14895C0.882421 0.816316 1.28249 0.65 1.74999 0.65H10.25C10.7175 0.65 11.1178 0.816316 11.451 1.14895C11.7837 1.48215 11.95 1.8825 11.95 2.35V17.65C11.95 18.1175 11.7837 18.5179 11.451 18.851C11.1178 19.1837 10.7175 19.35 10.25 19.35H1.74999ZM1.74999 15.1V17.65H10.25V15.1H1.74999ZM1.74999 13.4H10.25V4.9H1.74999V13.4ZM1.74999 3.2H10.25V2.35H1.74999V3.2Z" fill="#526070"/>
</svg>
